<svg width="22" height="22" viewBox="0 0 22 22" fill="none" xmlns="http://www.w3.org/2000/svg">
<g id="Iconsax/Broken/book">
<path id="Vector" d="M20.1666 10.076V4.28267C20.1666 3.18267 19.2683 2.36684 18.1774 2.45851H18.1224C16.1974 2.62351 13.2733 3.60434 11.6416 4.63101L11.4858 4.73184C11.2199 4.89684 10.7799 4.89684 10.5141 4.73184L10.2849 4.59434C8.65325 3.57684 5.73825 2.60517 3.81325 2.44934C2.72242 2.35767 1.83325 3.18267 1.83325 4.27351V15.3468C1.83325 16.2268 2.54825 17.0518 3.42825 17.1618L3.69409 17.1985C5.68325 17.4643 8.75409 18.4727 10.5141 19.4352L10.5508 19.4535C10.7983 19.591 11.1924 19.591 11.4308 19.4535C13.1908 18.4818 16.2708 17.4643 18.2691 17.1985L18.5716 17.1618C19.4516 17.0518 20.1666 16.2268 20.1666 15.3468V13.7702M10.9999 5.03067V18.7807M7.10409 7.78067H5.04159M7.79159 10.5307H5.04159" stroke="#CCCCCC" stroke-width="1.5" stroke-linecap="round" stroke-linejoin="round"/>
</g>
</svg>
