<svg width="22" height="22" viewBox="0 0 22 22" fill="none" xmlns="http://www.w3.org/2000/svg">
<g id="dashboard-85 1">
<path id="Vector" d="M13.437 12.1531H19.353C20.062 12.1531 20.6421 12.7331 20.6421 13.4421V19.3232C20.6421 20.0321 20.062 20.6122 19.353 20.6122H13.437C12.728 20.6122 12.1479 20.0321 12.1479 19.3232V13.4421C12.1479 12.7331 12.728 12.1531 13.437 12.1531ZM13.437 19.3209C13.4377 19.3217 13.4385 19.3225 13.4393 19.3232H19.3507C19.3515 19.3225 19.3523 19.3217 19.353 19.3209V13.4445C19.3523 13.4436 19.3515 13.4429 19.3507 13.4422H13.4393V13.4421C13.4385 13.4428 13.4377 13.4436 13.437 13.4445V19.3209ZM2.68115 1.37073H8.59877C9.30775 1.37073 9.88783 1.95081 9.88783 2.65979V8.54082C9.88783 9.2498 9.30775 9.82988 8.59877 9.82988H2.68115C1.97217 9.82988 1.39209 9.2498 1.39209 8.54082V2.65979C1.39209 1.95081 1.97217 1.37073 2.68115 1.37073ZM2.68113 8.53852C2.68183 8.53935 2.6826 8.54012 2.68343 8.54082H8.59645C8.59727 8.54012 8.59804 8.53935 8.59874 8.53852V2.66211C8.59804 2.66128 8.59727 2.66051 8.59645 2.65981H2.68345C2.68266 2.66048 2.68182 2.66129 2.68113 2.66211V8.53852ZM13.4354 1.37073H19.353C20.062 1.37073 20.6421 1.95081 20.6421 2.65979V8.54082C20.6421 9.2498 20.062 9.82988 19.353 9.82988H13.4354C12.7264 9.82988 12.1464 9.2498 12.1464 8.54082V2.65979C12.1463 1.95081 12.7264 1.37073 13.4354 1.37073ZM13.4354 8.53852C13.4361 8.53935 13.4369 8.54012 13.4377 8.54082H19.3507C19.3515 8.54012 19.3523 8.53935 19.353 8.53852V2.66211C19.3523 2.66128 19.3515 2.66051 19.3507 2.65981H13.4377C13.4369 2.66048 13.4361 2.66129 13.4354 2.66211V8.53852ZM2.68115 12.1596H8.56787C9.27686 12.1596 9.85693 12.7395 9.85693 13.4481V19.3322C9.85693 20.0409 9.27686 20.6207 8.56787 20.6207H4.70068C4.34619 20.6207 4.05615 20.3308 4.05615 19.9765C4.05615 19.6221 4.34619 19.3322 4.70068 19.3322H8.56787V13.4481H2.68115V17.378C2.68115 17.7324 2.39111 18.0223 2.03662 18.0223C1.68213 18.0223 1.39209 17.7324 1.39209 17.378V13.4481C1.39209 12.7395 1.97217 12.1596 2.68115 12.1596Z" fill="#5C96FD"/>
</g>
</svg>
