<svg width="22" height="22" viewBox="0 0 22 22" fill="none" xmlns="http://www.w3.org/2000/svg">
<g id="Iconsax/Linear/key">
<path id="Vector" d="M6.31593 16.0325L8.42426 18.1408M18.1409 13.6858C17.2458 14.5787 16.1238 15.2103 14.8961 15.5124C13.6684 15.8145 12.3815 15.7756 11.1743 15.4L6.85676 19.7083C6.54509 20.0292 5.93093 20.2217 5.49093 20.1575L3.49259 19.8825C2.83259 19.7908 2.21843 19.1675 2.11759 18.5075L1.84259 16.5092C1.77843 16.0692 1.98926 15.455 2.29176 15.1433L6.60009 10.835C5.86676 8.45167 6.43509 5.7475 8.32343 3.86833C11.0276 1.16417 15.4184 1.16417 18.1318 3.86833C20.8451 6.5725 20.8451 10.9817 18.1409 13.6858Z" stroke="#808080" stroke-width="1.5" stroke-miterlimit="10" stroke-linecap="round" stroke-linejoin="round"/>
<path id="Vector_2" d="M13.2917 10.0833C13.6564 10.0833 14.0062 9.93845 14.264 9.68059C14.5219 9.42272 14.6667 9.07299 14.6667 8.70831C14.6667 8.34364 14.5219 7.9939 14.264 7.73604C14.0062 7.47818 13.6564 7.33331 13.2917 7.33331C12.9271 7.33331 12.5773 7.47818 12.3195 7.73604C12.0616 7.9939 11.9167 8.34364 11.9167 8.70831C11.9167 9.07299 12.0616 9.42272 12.3195 9.68059C12.5773 9.93845 12.9271 10.0833 13.2917 10.0833Z" stroke="#808080" stroke-width="1.5" stroke-linecap="round" stroke-linejoin="round"/>
</g>
</svg>
