<svg width="24" height="24" viewBox="0 0 24 24" fill="none" xmlns="http://www.w3.org/2000/svg">
<g id="Iconsax/Linear/people">
<path id="Vector" d="M12.34 13.5C9.17 13.5 6.59 10.92 6.59 7.75C6.59 4.58 9.17 2 12.34 2C15.51 2 18.09 4.58 18.09 7.75C18.09 10.92 15.51 13.5 12.34 13.5ZM12.34 3.5C11.2136 3.50264 10.1342 3.95126 9.33771 4.74771C8.54126 5.54417 8.09264 6.62364 8.09 7.75C8.09264 8.87636 8.54126 9.95583 9.33771 10.7523C10.1342 11.5487 11.2136 11.9974 12.34 12C13.4664 11.9974 14.5458 11.5487 15.3423 10.7523C16.1387 9.95583 16.5874 8.87636 16.59 7.75C16.5874 6.62364 16.1387 5.54417 15.3423 4.74771C14.5458 3.95126 13.4664 3.50264 12.34 3.5ZM3.75 23.5C3.34 23.5 3 23.16 3 22.75C3 18.48 7.19 15 12.34 15C12.75 15 13.09 15.34 13.09 15.75C13.09 16.16 12.75 16.5 12.34 16.5C8.02 16.5 4.5 19.3 4.5 22.75C4.5 23.16 4.16 23.5 3.75 23.5ZM18.54 22.9C16.36 22.9 14.59 21.13 14.59 18.95C14.59 16.77 16.36 15 18.54 15C20.72 15 22.49 16.77 22.49 18.95C22.49 21.13 20.72 22.9 18.54 22.9ZM18.54 16.5C17.19 16.5 16.09 17.6 16.09 18.95C16.09 20.3 17.19 21.4 18.54 21.4C19.89 21.4 20.99 20.3 20.99 18.95C20.99 17.6 19.89 16.5 18.54 16.5Z" fill="#808080"/>
</g>
</svg>
