<svg width="22" height="22" viewBox="0 0 22 22" fill="none" xmlns="http://www.w3.org/2000/svg">
<g id="Iconsax/Linear/people">
<path id="Vector" d="M19.9354 18.0385H10.7687C10.3929 18.0385 10.0812 17.7268 10.0812 17.351C10.0812 16.9751 10.3929 16.6635 10.7687 16.6635H19.9354C20.3112 16.6635 20.6229 16.9751 20.6229 17.351C20.6229 17.7268 20.3112 18.0385 19.9354 18.0385ZM19.9354 11.6218H10.7687C10.3929 11.6218 10.0812 11.3101 10.0812 10.9343C10.0812 10.5585 10.3929 10.2468 10.7687 10.2468H19.9354C20.3112 10.2468 20.6229 10.5585 20.6229 10.9343C20.6229 11.3101 20.3112 11.6218 19.9354 11.6218ZM19.9354 5.20513H10.7687C10.3929 5.20513 10.0812 4.89346 10.0812 4.51763C10.0812 4.14179 10.3929 3.83013 10.7687 3.83013H19.9354C20.3112 3.83013 20.6229 4.14179 20.6229 4.51763C20.6229 4.89346 20.3112 5.20513 19.9354 5.20513ZM4.35206 6.12271C4.17789 6.12271 4.00373 6.05854 3.86623 5.92104L2.94956 5.00438C2.8217 4.875 2.75 4.70044 2.75 4.51854C2.75 4.33665 2.8217 4.16208 2.94956 4.03271C3.21539 3.76688 3.65539 3.76688 3.92123 4.03271L4.35206 4.46354L6.61623 2.19938C6.88206 1.93354 7.32206 1.93354 7.58789 2.19938C7.85373 2.46521 7.85373 2.90521 7.58789 3.17104L4.83789 5.92104C4.70039 6.05854 4.52623 6.12271 4.35206 6.12271ZM4.35206 12.5394C4.17789 12.5394 4.00373 12.4752 3.86623 12.3377L2.94956 11.421C2.8217 11.2917 2.75 11.1171 2.75 10.9352C2.75 10.7533 2.8217 10.5788 2.94956 10.4494C3.21539 10.1835 3.65539 10.1835 3.92123 10.4494L4.35206 10.8802L6.61623 8.61604C6.88206 8.35021 7.32206 8.35021 7.58789 8.61604C7.85373 8.88188 7.85373 9.32188 7.58789 9.58771L4.83789 12.3377C4.70039 12.4752 4.52623 12.5394 4.35206 12.5394ZM4.35206 18.956C4.17789 18.956 4.00373 18.8919 3.86623 18.7544L2.94956 17.8377C2.8217 17.7083 2.75 17.5338 2.75 17.3519C2.75 17.17 2.8217 16.9954 2.94956 16.866C3.21539 16.6002 3.65539 16.6002 3.92123 16.866L4.35206 17.2969L6.61623 15.0327C6.88206 14.7669 7.32206 14.7669 7.58789 15.0327C7.85373 15.2985 7.85373 15.7385 7.58789 16.0044L4.83789 18.7544C4.70039 18.8919 4.52623 18.956 4.35206 18.956Z" fill="#808080"/>
</g>
</svg>
