<svg width="16" height="16" viewBox="0 0 16 16" fill="none" xmlns="http://www.w3.org/2000/svg">
<path d="M9.70016 14.9466C9.48016 14.9466 9.2735 14.8 9.2135 14.5733C9.14016 14.3066 9.30016 14.0333 9.57349 13.96C10.8903 13.6118 12.0549 12.8378 12.8858 11.7585C13.7166 10.6792 14.1671 9.35536 14.1668 7.99331C14.1668 4.59331 11.4002 1.82665 8.00016 1.82665C5.1135 1.82665 3.22016 3.51331 2.3335 4.53331H4.2935C4.42699 4.53331 4.55501 4.58634 4.64941 4.68074C4.7438 4.77513 4.79683 4.90315 4.79683 5.03665C4.79683 5.17014 4.7438 5.29816 4.64941 5.39256C4.55501 5.48695 4.42699 5.53998 4.2935 5.53998H1.34016C1.30683 5.53998 1.24683 5.53331 1.20016 5.51998C1.14313 5.50147 1.08919 5.4745 1.04016 5.43998C0.981915 5.40079 0.933908 5.34821 0.900163 5.28665C0.864141 5.223 0.841458 5.15268 0.833496 5.07998V1.99998C0.833496 1.72665 1.06016 1.49998 1.3335 1.49998C1.60683 1.49998 1.8335 1.72665 1.8335 1.99998V3.59331C2.92016 2.42665 4.96683 0.833313 8.00016 0.833313C11.9535 0.833313 15.1668 4.04665 15.1668 7.99998C15.1668 11.2533 12.9735 14.1066 9.82683 14.9333C9.78683 14.94 9.74016 14.9466 9.70016 14.9466ZM7.52683 15.1533C7.5135 15.1533 7.50016 15.1466 7.4935 15.1466C6.7735 15.1 6.06683 14.94 5.40016 14.68C5.3387 14.6566 5.28248 14.6212 5.23475 14.576C5.18702 14.5308 5.14872 14.4765 5.12207 14.4164C5.09542 14.3563 5.08094 14.2915 5.07947 14.2257C5.07799 14.16 5.08956 14.0946 5.1135 14.0333C5.2135 13.78 5.5135 13.6533 5.76016 13.7466C6.34016 13.9733 6.94683 14.1066 7.56016 14.1533C7.82016 14.1666 8.02683 14.3933 8.02683 14.66L8.02016 14.6866C8.00683 14.9466 7.78683 15.1533 7.52683 15.1533ZM3.8535 13.72C3.74016 13.72 3.6335 13.68 3.54016 13.6133C2.98016 13.16 2.48683 12.6333 2.08683 12.0466C2.04805 11.9934 2.0205 11.9327 2.00585 11.8685C1.9912 11.8042 1.98975 11.7377 2.0016 11.6728C2.01344 11.608 2.03833 11.5463 2.07476 11.4913C2.11118 11.4364 2.15838 11.3895 2.2135 11.3533C2.32261 11.2812 2.45511 11.2535 2.58396 11.2758C2.71281 11.2981 2.82829 11.3688 2.90683 11.4733V11.48C2.9135 11.4866 2.92016 11.5 2.92683 11.5066C3.27264 12.0055 3.69052 12.4504 4.16683 12.8266C4.28016 12.92 4.3535 13.06 4.3535 13.2133C4.3535 13.3266 4.32016 13.44 4.24683 13.5333C4.14683 13.6533 4.00683 13.72 3.8535 13.72ZM1.62683 10.4666C1.40683 10.4666 1.2135 10.3266 1.1535 10.12C0.940163 9.43331 0.833496 8.71998 0.833496 7.99998V7.99331C0.840163 7.71998 1.06016 7.49998 1.3335 7.49998C1.60683 7.49998 1.8335 7.72665 1.8335 7.99998C1.8335 8.62665 1.92683 9.23998 2.10683 9.81998C2.12016 9.87331 2.12683 9.91998 2.12683 9.97331C2.1256 10.1049 2.07231 10.2307 1.97862 10.3231C1.88493 10.4156 1.75845 10.4672 1.62683 10.4666Z" fill="white"/>
</svg>
