<svg width="93" height="51" viewBox="0 0 93 51" fill="none" xmlns="http://www.w3.org/2000/svg">
<g id="Stock graph 2">
<path id="Vector 3" d="M1.5 49.5215L5.5 42.5215C6 41.6882 7.5 40.0215 9.5 40.0215C11.5 40.0215 13 36.6882 13.5 35.0215L21.5 19.0215C22.3333 15.5215 25 10.6215 29 19.0215C29.3333 19.6882 30.4 21.0215 32 21.0215C33.6 21.0215 36 24.3549 37 26.0215L45 42.5215C46.5 44.0215 50.1 46.1215 52.5 42.5215L55 37.5215C56.3333 35.5215 59.6 31.5215 62 31.5215L64.5 28.5215L68 6.52152C68.5 2.35485 70.5 -3.47848 74.5 6.52152L76.5 11.5215C76.8333 12.8548 78.4 15.5215 82 15.5215H92.5" stroke="#7AE3C0" stroke-width="2"/>
<path id="Vector 4" d="M0 31.0215H90.5" stroke="white" stroke-dasharray="6 6"/>
</g>
</svg>
