<svg width="80" height="27" viewBox="0 0 80 27" fill="none" xmlns="http://www.w3.org/2000/svg">
<g id="stock Graph">
<path id="Vector 1" d="M1 14.0499L12.0551 10.673L18.811 3.30527C19.5276 1.56566 21.452 -0.869799 23.4173 3.30527L25.874 9.13809C26.3858 9.8544 27.9008 10.8572 29.8661 9.13809C31.8315 7.41895 32.5276 9.44508 32.6299 10.673L34.7795 22.3387C35.7008 25.1016 38.3417 28.9697 41.5354 22.3387L43.9921 14.0499H49.8268L53.5118 10.673C54.126 10.0591 55.8457 9.19949 57.811 10.673C58.4252 12.3103 60.2677 14.6025 62.7244 10.673L64.874 7.29615C65.3858 6.68217 66.778 5.82259 68.252 7.29615C69.726 8.7697 71.7323 9.13809 72.5512 9.13809C73.8819 8.62644 77.0346 7.91013 79 9.13809" stroke="#F80000" stroke-width="2"/>
<path id="Vector 2" d="M1 12H77" stroke="#808080" stroke-dasharray="6 6"/>
</g>
</svg>
